<svg width="24" height="24" viewBox="0 0 24 24" fill="none" xmlns="http://www.w3.org/2000/svg">
<path d="M7.71 9.29L11.59 13.17L15.47 9.29C15.5626 9.19742 15.6725 9.12398 15.7935 9.07387C15.9144 9.02377 16.0441 8.99798 16.175 8.99798C16.3059 8.99798 16.4356 9.02377 16.5565 9.07387C16.6775 9.12398 16.7874 9.19742 16.88 9.29C16.9726 9.38258 17.046 9.49249 17.0961 9.61346C17.1462 9.73442 17.172 9.86407 17.172 9.995C17.172 10.1259 17.1462 10.2556 17.0961 10.3765C17.046 10.4975 16.9726 10.6074 16.88 10.7L12.29 15.29C12.1975 15.3827 12.0876 15.4563 11.9666 15.5064C11.8457 15.5566 11.716 15.5824 11.585 15.5824C11.454 15.5824 11.3244 15.5566 11.2034 15.5064C11.0824 15.4563 10.9725 15.3827 10.88 15.29L6.29 10.7C6.1973 10.6075 6.12375 10.4976 6.07357 10.3766C6.02339 10.2556 5.99756 10.126 5.99756 9.995C5.99756 9.86403 6.02339 9.73435 6.07357 9.61337C6.12375 9.4924 6.1973 9.38251 6.29 9.29C6.68 8.91 7.32 8.9 7.71 9.29Z" fill="#5F6B77"/>
</svg>
