<svg width="48" height="48" viewBox="0 0 48 48" fill="none" xmlns="http://www.w3.org/2000/svg">
<path d="M44.766 22.5525C44.598 22.1943 44.3394 21.886 44.0159 21.6582C43.6923 21.4304 43.315 21.2909 42.921 21.2535C40.9577 21.053 39.1369 20.1367 37.806 18.6795C36.6638 17.3956 35.8833 15.8312 35.5443 14.1465C35.2054 12.4618 35.3202 10.7173 35.877 9.09151C36.0081 8.69904 36.0357 8.27939 35.9571 7.87314C35.8786 7.46689 35.6965 7.08779 35.4285 6.77251C35.1826 6.48193 34.8649 6.26079 34.507 6.13105C34.1491 6.00132 33.7635 5.96752 33.3885 6.03301L33.36 6.03751C30.791 6.60187 28.4817 8.00212 26.7934 10.0191C25.1052 12.036 24.1333 14.5558 24.03 17.184C22.8196 16.737 21.5403 16.5055 20.25 16.5C17.8613 16.5127 15.5376 17.2802 13.6114 18.693C11.6851 20.1058 10.2548 22.0914 9.52503 24.366C7.43911 24.9612 5.63874 26.2905 4.45597 28.1088C3.2732 29.9272 2.7878 32.1119 3.08929 34.26C3.39079 36.4081 4.45884 38.3747 6.09648 39.7972C7.73411 41.2197 9.83086 42.0021 12 42H28.5C29.9533 42.0056 31.3862 41.6579 32.6752 40.9868C33.9642 40.3157 35.0708 39.3412 35.8996 38.1474C36.7283 36.9536 37.2545 35.5763 37.4327 34.1339C37.6109 32.6916 37.4358 31.2276 36.9225 29.868C38.4879 29.618 39.9827 29.0402 41.3093 28.1724C42.6359 27.3046 43.7642 26.1665 44.6205 24.8325C44.8408 24.4979 44.97 24.1116 44.9956 23.7118C45.0211 23.312 44.942 22.9124 44.766 22.5525ZM28.5 39H12C10.4975 39.0025 9.04887 38.4402 7.94155 37.4245C6.83423 36.4089 6.14908 35.0142 6.02202 33.517C5.89496 32.0198 6.33526 30.5296 7.25559 29.3419C8.17592 28.1542 9.50905 27.3558 10.9905 27.105L11.985 26.937L12.2025 25.953C12.6096 24.1221 13.6288 22.4848 15.0919 21.3113C16.555 20.1378 18.3745 19.4982 20.25 19.4982C22.1256 19.4982 23.9451 20.1378 25.4082 21.3113C26.8713 22.4848 27.8905 24.1221 28.2975 25.953L28.515 26.937L29.5095 27.1065C30.9891 27.3592 32.3199 28.1583 33.2384 29.3455C34.1569 30.5326 34.5961 32.0214 34.4692 33.5171C34.3422 35.0127 33.6583 36.4061 32.5529 37.4216C31.4474 38.437 30.001 39.0003 28.5 39ZM35.1975 26.9985H35.166C34.0443 25.7437 32.591 24.8312 30.9735 24.366C30.2686 22.1717 28.9073 20.2466 27.0735 18.8505C27.0585 18.699 27.0195 18.555 27.012 18.4005C26.8812 16.4815 27.3606 14.5704 28.3817 12.9404C29.4028 11.3104 30.9133 10.0451 32.697 9.32551C32.2265 11.3186 32.2454 13.3959 32.7522 15.38C33.2589 17.3642 34.2384 19.1962 35.607 20.7195C37.1645 22.4132 39.2098 23.5811 41.46 24.0615C40.6957 24.9807 39.7384 25.7204 38.6561 26.228C37.5738 26.7355 36.393 26.9986 35.1975 26.9985Z" fill="#08123A"/>
</svg>
