<svg width="48" height="48" viewBox="0 0 48 48" fill="none" xmlns="http://www.w3.org/2000/svg">
<path d="M37.5 24V22.5C37.5 18.9196 36.0777 15.4858 33.5459 12.9541C31.0142 10.4223 27.5804 9 24 9C20.4196 9 16.9858 10.4223 14.4541 12.9541C11.9223 15.4858 10.5 18.9196 10.5 22.5V24C8.51088 24 6.60322 24.7902 5.1967 26.1967C3.79018 27.6032 3 29.5109 3 31.5C3 33.4891 3.79018 35.3968 5.1967 36.8033C6.60322 38.2098 8.51088 39 10.5 39H13.5V22.5C13.5 19.7152 14.6062 17.0445 16.5754 15.0754C18.5445 13.1062 21.2152 12 24 12C26.7848 12 29.4555 13.1062 31.4246 15.0754C33.3938 17.0445 34.5 19.7152 34.5 22.5V39H37.5C39.4891 39 41.3968 38.2098 42.8033 36.8033C44.2098 35.3968 45 33.4891 45 31.5C45 29.5109 44.2098 27.6032 42.8033 26.1967C41.3968 24.7902 39.4891 24 37.5 24ZM6 31.5C6 30.3065 6.47411 29.1619 7.31802 28.318C8.16193 27.4741 9.30653 27 10.5 27V36C9.30653 36 8.16193 35.5259 7.31802 34.682C6.47411 33.8381 6 32.6935 6 31.5ZM37.5 36V27C38.6935 27 39.8381 27.4741 40.682 28.318C41.5259 29.1619 42 30.3065 42 31.5C42 32.6935 41.5259 33.8381 40.682 34.682C39.8381 35.5259 38.6935 36 37.5 36Z" fill="#08123A"/>
</svg>
