<svg width="32" height="32" viewBox="0 0 32 32" fill="none" xmlns="http://www.w3.org/2000/svg">
<path d="M29.415 19L27.7 17.285C27.8951 16.8846 27.9976 16.4454 28 16C28 15.4067 27.8241 14.8266 27.4944 14.3333C27.1648 13.8399 26.6962 13.4554 26.1481 13.2284C25.5999 13.0013 24.9967 12.9419 24.4147 13.0576C23.8328 13.1734 23.2982 13.4591 22.8787 13.8787C22.4591 14.2982 22.1734 14.8328 22.0576 15.4147C21.9419 15.9967 22.0013 16.5999 22.2284 17.1481C22.4554 17.6962 22.8399 18.1648 23.3333 18.4944C23.8266 18.8241 24.4067 19 25 19C25.4457 18.9978 25.8853 18.8952 26.286 18.7L28 20.414V28H22V25C21.9979 23.1441 21.2597 21.3649 19.9474 20.0526C18.6351 18.7403 16.8559 18.0021 15 18H9C7.14413 18.0021 5.36489 18.7403 4.05259 20.0526C2.7403 21.3649 2.00212 23.1441 2 25V30H30V20.414C30.0007 20.1514 29.9494 19.8912 29.849 19.6485C29.7486 19.4058 29.6011 19.1854 29.415 19ZM4 25C4.00159 23.6744 4.52888 22.4036 5.46622 21.4662C6.40356 20.5289 7.67441 20.0016 9 20H15C16.3256 20.0016 17.5964 20.5289 18.5338 21.4662C19.4711 22.4036 19.9984 23.6744 20 25V28H4V25Z" fill="#08123A"/>
<path d="M12 4C12.9889 4 13.9556 4.29324 14.7779 4.84265C15.6001 5.39206 16.241 6.17295 16.6194 7.08658C16.9978 8.00021 17.0969 9.00555 16.9039 9.97545C16.711 10.9454 16.2348 11.8363 15.5355 12.5355C14.8363 13.2348 13.9454 13.711 12.9755 13.9039C12.0055 14.0969 11.0002 13.9978 10.0866 13.6194C9.17296 13.241 8.39206 12.6001 7.84266 11.7779C7.29325 10.9556 7 9.98891 7 9C7 7.67392 7.52679 6.40215 8.46447 5.46447C9.40215 4.52678 10.6739 4 12 4ZM12 2C10.6155 2 9.26216 2.41054 8.11101 3.17971C6.95987 3.94888 6.06266 5.04213 5.53285 6.32122C5.00303 7.6003 4.86441 9.00776 5.13451 10.3656C5.4046 11.7235 6.07129 12.9708 7.05026 13.9497C8.02922 14.9287 9.2765 15.5954 10.6344 15.8655C11.9922 16.1356 13.3997 15.997 14.6788 15.4672C15.9579 14.9373 17.0511 14.0401 17.8203 12.889C18.5895 11.7378 19 10.3845 19 9C19 7.14348 18.2625 5.36301 16.9497 4.05025C15.637 2.7375 13.8565 2 12 2Z" fill="#08123A"/>
</svg>
